<mxfile host="app.diagrams.net" modified="2023-05-24T13:25:20.740Z" agent="Mozilla/5.0 (Macintosh; Intel Mac OS X 10_15_7) AppleWebKit/537.36 (KHTML, like Gecko) Chrome/113.0.0.0 Safari/537.36" etag="u8tFayS_8FHMi467mOzy" version="21.3.2" type="github">
  <diagram name="第 1 页" id="80kuKdCVV-wdO_9jsrGp">
    <mxGraphModel dx="2074" dy="1099" grid="1" gridSize="10" guides="1" tooltips="1" connect="1" arrows="1" fold="1" page="1" pageScale="1" pageWidth="850" pageHeight="1100" math="0" shadow="0">
      <root>
        <mxCell id="0" />
        <mxCell id="1" parent="0" />
        <mxCell id="czdUJdp83PrW3McMccCM-3" value="" style="edgeStyle=orthogonalEdgeStyle;rounded=0;orthogonalLoop=1;jettySize=auto;html=1;" parent="1" source="czdUJdp83PrW3McMccCM-1" target="czdUJdp83PrW3McMccCM-2" edge="1">
          <mxGeometry relative="1" as="geometry" />
        </mxCell>
        <mxCell id="czdUJdp83PrW3McMccCM-1" value="订单" style="rounded=1;whiteSpace=wrap;html=1;fillColor=#cce5ff;strokeColor=none;fontStyle=1;fontSize=20;fontColor=#FFFFFF;" parent="1" vertex="1">
          <mxGeometry x="20" y="140" width="120" height="60" as="geometry" />
        </mxCell>
        <mxCell id="czdUJdp83PrW3McMccCM-5" value="" style="edgeStyle=orthogonalEdgeStyle;rounded=0;orthogonalLoop=1;jettySize=auto;html=1;" parent="1" source="czdUJdp83PrW3McMccCM-2" target="czdUJdp83PrW3McMccCM-4" edge="1">
          <mxGeometry relative="1" as="geometry" />
        </mxCell>
        <mxCell id="czdUJdp83PrW3McMccCM-2" value="仓储物流" style="rounded=1;whiteSpace=wrap;html=1;fillColor=#cce5ff;strokeColor=none;labelBackgroundColor=none;fontSize=20;fontColor=#FFFFFF;fontStyle=1" parent="1" vertex="1">
          <mxGeometry x="20" y="440" width="120" height="60" as="geometry" />
        </mxCell>
        <mxCell id="czdUJdp83PrW3McMccCM-7" value="" style="edgeStyle=orthogonalEdgeStyle;rounded=0;orthogonalLoop=1;jettySize=auto;html=1;" parent="1" source="czdUJdp83PrW3McMccCM-4" target="czdUJdp83PrW3McMccCM-6" edge="1">
          <mxGeometry relative="1" as="geometry" />
        </mxCell>
        <mxCell id="czdUJdp83PrW3McMccCM-4" value="营销" style="rounded=1;whiteSpace=wrap;html=1;fillColor=#cce5ff;strokeColor=none;fontSize=20;fontColor=#FFFFFF;fontStyle=1" parent="1" vertex="1">
          <mxGeometry x="20" y="730" width="120" height="60" as="geometry" />
        </mxCell>
        <mxCell id="czdUJdp83PrW3McMccCM-6" value="产品" style="rounded=1;whiteSpace=wrap;html=1;fontStyle=1;fontSize=20;fillColor=#cce5ff;strokeColor=none;gradientColor=none;fontColor=#FFFFFF;" parent="1" vertex="1">
          <mxGeometry x="20" y="980" width="120" height="60" as="geometry" />
        </mxCell>
      </root>
    </mxGraphModel>
  </diagram>
</mxfile>
